HIERARCHY
ROOT hip
{
  OFFSET 281.684 84.0095 -6.26527
  CHANNELS 6 Xposition Yposition Zposition Zrotation Xrotation Yrotation
  JOINT abdomen
  {
    OFFSET 0 20.6881 -0.73152
    CHANNELS 3 Zrotation Xrotation Yrotation
    JOINT chest
    {
      OFFSET 0 11.7043 -0.48768
      CHANNELS 3 Zrotation Xrotation Yrotation
      JOINT neck
      {
        OFFSET 0 22.1894 -2.19456
        CHANNELS 3 Zrotation Xrotation Yrotation
        JOINT head
        {
          OFFSET -0.24384 7.07133 1.2192
          CHANNELS 3 Zrotation Xrotation Yrotation
          JOINT leftEye
          {
            OFFSET 4.14528 8.04674 8.04672
            CHANNELS 3 Zrotation Xrotation Yrotation
            End Site
            {
              OFFSET 1 0 0
            }
          }
          JOINT rightEye
          {
            OFFSET -3.6576 8.04674 8.04672
            CHANNELS 3 Zrotation Xrotation Yrotation
            End Site
            {
              OFFSET 1 0 0
            }
          }
        }
      }
      JOINT rCollar
      {
        OFFSET -2.68224 19.2634 -4.8768
        CHANNELS 3 Zrotation Xrotation Yrotation
        JOINT rShldr
        {
          OFFSET -8.77824 -1.95073 1.46304
          CHANNELS 3 Zrotation Xrotation Yrotation
          JOINT rForeArm
          {
            OFFSET -28.1742 -1.7115 0.48768
            CHANNELS 3 Zrotation Xrotation Yrotation
            JOINT rHand
            {
              OFFSET -22.5879 0.773209 7.07136
              CHANNELS 3 Zrotation Xrotation Yrotation
              JOINT rThumb1
              {
                OFFSET -1.2192 -0.487915 3.41376
                CHANNELS 3 Zrotation Xrotation Yrotation
                JOINT rThumb2
                {
                  OFFSET -3.37035 -0.52449 3.41376
                  CHANNELS 3 Zrotation Xrotation Yrotation
                  End Site
                  {
                    OFFSET -1.78271 -1.18214 1.43049
                  }
                }
              }
              JOINT rIndex1
              {
                OFFSET -7.75947 0.938293 5.60832
                CHANNELS 3 Zrotation Xrotation Yrotation
                JOINT rIndex2
                {
                  OFFSET -2.54057 -0.884171 1.56538
                  CHANNELS 3 Zrotation Xrotation Yrotation
                  End Site
                  {
                    OFFSET -1.62519 -0.234802 1.16502
                  }
                }
              }
              JOINT rMid1
              {
                OFFSET -8.24714 1.18213 3.41376
                CHANNELS 3 Zrotation Xrotation Yrotation
                JOINT rMid2
                {
                  OFFSET -3.10165 -0.590103 1.0647
                  CHANNELS 3 Zrotation Xrotation Yrotation
                  End Site
                  {
                    OFFSET -2.48547 -0.328903 0.83742
                  }
                }
              }
              JOINT rRing1
              {
                OFFSET -8.82822 0.546677 1.51678
                CHANNELS 3 Zrotation Xrotation Yrotation
                JOINT rRing2
                {
                  OFFSET -2.60934 -0.819778 -0.0198488
                  CHANNELS 3 Zrotation Xrotation Yrotation
                  End Site
                  {
                    OFFSET -2.33842 -0.294052 0.168128
                  }
                }
              }
              JOINT rPinky1
              {
                OFFSET -8.27202 -0.0477905 -0.4584
                CHANNELS 3 Zrotation Xrotation Yrotation
                JOINT rPinky2
                {
                  OFFSET -1.82734 -0.647385 -0.700984
                  CHANNELS 3 Zrotation Xrotation Yrotation
                  End Site
                  {
                    OFFSET -1.69225 -0.51767 -0.607171
                  }
                }
              }
            }
          }
        }
      }
      JOINT lCollar
      {
        OFFSET 2.68224 19.2634 -4.8768
        CHANNELS 3 Zrotation Xrotation Yrotation
        JOINT lShldr
        {
          OFFSET 8.77824 -1.95073 1.46304
          CHANNELS 3 Zrotation Xrotation Yrotation
          JOINT lForeArm
          {
            OFFSET 28.1742 -1.7115 0.48768
            CHANNELS 3 Zrotation Xrotation Yrotation
            JOINT lHand
            {
              OFFSET 22.5879 0.773209 7.07136
              CHANNELS 3 Zrotation Xrotation Yrotation
              JOINT lThumb1
              {
                OFFSET 1.2192 -0.487915 3.41376
                CHANNELS 3 Zrotation Xrotation Yrotation
                JOINT lThumb2
                {
                  OFFSET 3.37035 -0.52449 3.41376
                  CHANNELS 3 Zrotation Xrotation Yrotation
                  End Site
                  {
                    OFFSET 1.78271 -1.18214 1.43049
                  }
                }
              }
              JOINT lIndex1
              {
                OFFSET 7.75947 0.938293 5.60832
                CHANNELS 3 Zrotation Xrotation Yrotation
                JOINT lIndex2
                {
                  OFFSET 2.54057 -0.884171 1.56538
                  CHANNELS 3 Zrotation Xrotation Yrotation
                  End Site
                  {
                    OFFSET 1.62519 -0.234802 1.16502
                  }
                }
              }
              JOINT lMid1
              {
                OFFSET 8.24714 1.18213 3.41376
                CHANNELS 3 Zrotation Xrotation Yrotation
                JOINT lMid2
                {
                  OFFSET 3.10165 -0.590103 1.0647
                  CHANNELS 3 Zrotation Xrotation Yrotation
                  End Site
                  {
                    OFFSET 2.48547 -0.328903 0.83742
                  }
                }
              }
              JOINT lRing1
              {
                OFFSET 8.82822 0.546677 1.51678
                CHANNELS 3 Zrotation Xrotation Yrotation
                JOINT lRing2
                {
                  OFFSET 2.60934 -0.819778 -0.0198488
                  CHANNELS 3 Zrotation Xrotation Yrotation
                  End Site
                  {
                    OFFSET 2.33842 -0.294052 0.168128
                  }
                }
              }
              JOINT lPinky1
              {
                OFFSET 8.27202 -0.0477905 -0.4584
                CHANNELS 3 Zrotation Xrotation Yrotation
                JOINT lPinky2
                {
                  OFFSET 1.82734 -0.647385 -0.700984
                  CHANNELS 3 Zrotation Xrotation Yrotation
                  End Site
                  {
                    OFFSET 1.69225 -0.51767 -0.607171
                  }
                }
              }
            }
          }
        }
      }
    }
  }
  JOINT rButtock
  {
    OFFSET -8.77824 4.35084 1.2192
    CHANNELS 3 Zrotation Xrotation Yrotation
    JOINT rThigh
    {
      OFFSET 0 -1.70687 -2.19456
      CHANNELS 3 Zrotation Xrotation Yrotation
      JOINT rShin
      {
        OFFSET 0 -36.8199 0.73152
        CHANNELS 3 Zrotation Xrotation Yrotation
        JOINT rFoot
        {
          OFFSET 0.73152 -45.1104 -5.12064
          CHANNELS 3 Zrotation Xrotation Yrotation
          End Site
          {
            OFFSET -1.1221 -3.69964 12.103
          }
        }
      }
    }
  }
  JOINT lButtock
  {
    OFFSET 8.77824 4.35084 1.2192
    CHANNELS 3 Zrotation Xrotation Yrotation
    JOINT lThigh
    {
      OFFSET 0 -1.70687 -2.19456
      CHANNELS 3 Zrotation Xrotation Yrotation
      JOINT lShin
      {
        OFFSET 0 -36.8199 0.73152
        CHANNELS 3 Zrotation Xrotation Yrotation
        JOINT lFoot
        {
          OFFSET -0.73152 -45.1104 -5.12064
          CHANNELS 3 Zrotation Xrotation Yrotation
          End Site
          {
            OFFSET 1.1221 -3.69964 12.103
          }
        }
      }
    }
  }
}
MOTION
Frames:	4
Frame Time:	0.00833333
-176.419 84.8928 5.60963 0.136946 -0.000168919 -0.00234553 -0.180149 -0.000587409 -0.00513803 -0.0496826 -0.000860785 -0.00860676 5.21072e-015 7.95139e-016 3.41661e-017 1.56822e-014 9.54166e-015 9.47333e-017 -0 0 0 -0 0 0 2.63266e-015 3.88251e-019 9.93923e-017 5.72368e-014 8.69683e-017 1.59028e-015 9.48998e-013 -2.83865e-013 -4.77083e-014 1.08294e-011 2.83467e-013 1.24042e-013 2.55492e-011 -4.58802e-015 1.84472e-013 4.41143e-011 -3.18055e-015 3.16465e-013 2.55526e-011 -3.57812e-015 1.68569e-013 7.73091 5.47488 0.417314 2.55489e-011 -4.96962e-015 1.87653e-013 2.90554 0.965183 0.102902 2.555e-011 -4.96962e-015 1.84472e-013 10.2786 0.731801 0.0259123 2.55404e-011 -7.95139e-016 1.90833e-013 2.22167 -0.733487 -0.20892 2.53591e-015 0 -9.93923e-017 5.37144e-014 -1.30452e-016 -3.97569e-016 9.41742e-013 2.83865e-013 2.54444e-014 1.08313e-011 -2.80858e-013 6.67917e-014 2.55443e-011 7.28198e-015 1.87653e-013 4.41258e-011 1.90833e-014 3.22826e-013 2.55403e-011 5.56597e-015 1.94014e-013 -7.73091 5.47488 -0.417314 2.55455e-011 6.85807e-015 1.90833e-013 -2.90554 0.965183 -0.102902 2.55418e-011 7.05686e-015 1.86858e-013 -10.2786 0.731801 -0.0259123 2.55468e-011 9.1441e-015 1.81292e-013 -2.22167 -0.733487 0.20892 -2.03217e-016 0 -3.88251e-019 0.373584 -2.84391 -0.0347143 -0.00664995 -0.401538 -0.0584305 -0.509736 3.24465 0.124538 2.03217e-016 0 3.88251e-019 -0.647755 -3.54407 0.0518668 0.00461045 0.866748 0.0396085 0.511822 2.67656 -0.113176 
-176.788 82.5833 0.339037 -7.27512 -2.56275 23.8023 -1.16324 -3.5221 -0.26671 0.812555 1.16766 -0.0690417 -1.39845 4.07965 -0.368068 2.22003 -4.37892 -0.29853 -0 0 0 -0 0 0 1.5031e-014 1.09243e-013 2.18162e-014 23.2836 1.07343 -1.79273 -3.57299 -1.51314 5.69471 0.026326 3.60178 0.502595 5.03985e-010 7.09506e-010 -2.41899e-009 8.44778e-010 1.22604e-009 -4.18551e-009 5.0399e-010 7.09507e-010 -2.41901e-009 7.73091 5.47488 0.417314 5.03984e-010 7.09506e-010 -2.41899e-009 2.90554 0.965183 0.102902 5.03989e-010 7.09506e-010 -2.41899e-009 10.2786 0.731801 0.0259123 5.03979e-010 7.09509e-010 -2.41899e-009 2.22167 -0.733487 -0.20892 1.49958e-014 1.09242e-013 2.16345e-014 -23.4142 -5.57737 3.28373 2.49366 -0.92332 -4.09304 -0.240834 10.934 -1.43792 -1.81676e-009 1.24906e-009 2.23128e-009 -3.06052e-009 2.16685e-009 3.90391e-009 -1.81677e-009 1.24906e-009 2.23129e-009 -7.73091 5.47488 -0.417314 -1.81676e-009 1.24906e-009 2.23128e-009 -2.90554 0.965183 -0.102902 -1.81677e-009 1.24906e-009 2.23128e-009 -10.2786 0.731801 -0.0259123 -1.81676e-009 1.24906e-009 2.23127e-009 -2.22167 -0.733487 0.20892 -2.03217e-016 0 -3.88251e-019 0.0470996 -10.9851 2.29042 0.00927667 7.66887 0.079469 -1.02743 0.381502 -5.37798 2.03217e-016 0 3.88251e-019 -0.979186 -12.3111 -2.38482 -0.0239864 9.61811 -0.128065 0.900363 -3.44234 2.52458 
-176.652 82.557 0.260884 -13.1035 -3.82426 49.0603 -2.23151 -7.24914 -0.549318 1.72455 2.40184 -0.133791 -2.82413 8.3961 -0.765195 4.52637 -9.01524 -0.622069 -0 0 0 -0 0 0 2.91193e-014 2.48192e-013 4.73511e-014 47.9745 2.22949 -3.68384 -7.02803 -3.06493 11.7326 -0.0150424 7.39682 1.03893 1.03879e-009 1.50147e-009 -5.13545e-009 1.73963e-009 2.59451e-009 -8.88567e-009 1.0388e-009 1.50147e-009 -5.13546e-009 7.73091 5.47488 0.417314 1.03879e-009 1.50147e-009 -5.13545e-009 2.90554 0.965183 0.102902 1.0388e-009 1.50147e-009 -5.13545e-009 10.2786 0.731801 0.0259123 1.03879e-009 1.50148e-009 -5.13545e-009 2.22167 -0.733487 -0.20892 2.91514e-014 2.4819e-013 4.71896e-014 -47.4672 -11.3629 6.84772 4.99477 -1.88777 -8.43664 0.145245 22.4105 -3.13525 -3.88956e-009 2.6502e-009 4.73194e-009 -6.55374e-009 4.59755e-009 8.27949e-009 -3.88956e-009 2.6502e-009 4.73196e-009 -7.73091 5.47488 -0.417314 -3.88956e-009 2.6502e-009 4.73195e-009 -2.90554 0.965183 -0.102902 -3.88956e-009 2.6502e-009 4.73195e-009 -10.2786 0.731801 -0.0259123 -3.88955e-009 2.6502e-009 4.73194e-009 -2.22167 -0.733487 0.20892 -2.03217e-016 0 -3.88251e-019 0.468226 -19.5364 4.96131 -0.0175088 16.1796 0.232645 -2.16812 -2.58451 -11.2117 2.03217e-016 0 3.88251e-019 -2.18607 -21.5231 -5.20441 0.00428221 18.8636 -0.318522 1.92782 -9.87085 5.37495 
-176.584 82.5109 0.1954 -17.5234 -2.68002 71.5225 -3.22731 -10.5642 -0.801937 2.54444 3.50469 -0.190224 -4.03499 12.2369 -1.12701 6.52006 -13.1353 -0.91697 -0 0 0 -0 0 0 3.98276e-014 3.27728e-013 6.52499e-014 70.0522 3.20767 -5.38572 -9.82928 -4.36037 17.1293 -0.113477 10.802 1.53196 1.46086e-009 2.12853e-009 -7.25735e-009 2.44611e-009 3.67812e-009 -1.25572e-008 1.46086e-009 2.12853e-009 -7.25736e-009 7.73091 5.47488 0.417314 1.46085e-009 2.12853e-009 -7.25734e-009 2.90554 0.965183 0.102902 1.46087e-009 2.12853e-009 -7.25735e-009 10.2786 0.731801 0.0259123 1.46086e-009 2.12853e-009 -7.25734e-009 2.22167 -0.733487 -0.20892 3.99157e-014 3.27725e-013 6.51024e-014 -68.2654 -16.5076 10.2304 7.08822 -2.71348 -12.2915 1.18538 32.7112 -5.03567 -5.50138e-009 3.74716e-009 6.69345e-009 -9.26982e-009 6.50051e-009 1.17111e-008 -5.50139e-009 3.74716e-009 6.69347e-009 -7.73091 5.47488 -0.417314 -5.50138e-009 3.74716e-009 6.69345e-009 -2.90554 0.965183 -0.102902 -5.50139e-009 3.74716e-009 6.69346e-009 -10.2786 0.731801 -0.0259123 -5.50138e-009 3.74716e-009 6.69345e-009 -2.22167 -0.733487 0.20892 -2.03217e-016 0 -3.88251e-019 1.58429 -27.0846 7.65875 -0.0836943 23.8092 0.385982 -3.69474 -5.12238 -16.4498 2.03217e-016 0 3.88251e-019 -4.16709 -29.6247 -8.16685 0.0880089 27.12 -0.51458 3.41234 -15.5418 8.08363 
